<svg version="1" xmlns="http://www.w3.org/2000/svg" width="269.333" height="269.333" viewBox="0 0 202.000000 202.000000"><path d="M77.2 18.6c-30 8.8-52.7 31.8-61.4 62-3 10.6-3.3 31.3-.4 41.9 8.2 30.8 32.3 53.2 64.7 60 10.6 2.2 32.3 2 42.7-.5 59.7-14.3 83.9-77.9 49.1-129.1-8.5-12.5-20.9-22.8-36.7-30.1-10.6-5-20-6.7-36.7-6.7-10.8 0-14.4.4-21.3 2.5zM120 34c19.7 5.6 35.3 18.7 44.5 37.5 5.9 12.2 7.9 22 7.2 34.9-.9 16.5-5.7 28.1-16.5 39.7-18.2 19.8-50 27.6-78.3 19.3-23.3-6.9-41.7-25.9-46.4-48.1-2-9.6-1.9-21.3.5-31.1C40.5 46.6 80.7 23 120 34z"/><path d="M70 70v5h25v69h11V75.1l12.8-.3 12.7-.3.3-4.8.3-4.7H70v5z"/></svg>