<?xml version="1.0" standalone="no"?>
<!DOCTYPE svg PUBLIC "-//W3C//DTD SVG 20010904//EN"
 "http://www.w3.org/TR/2001/REC-SVG-20010904/DTD/svg10.dtd">
<svg version="1.0" xmlns="http://www.w3.org/2000/svg"
 width="202.000000pt" height="202.000000pt" viewBox="0 0 202.000000 202.000000"
 preserveAspectRatio="xMidYMid meet">
<metadata>
Created by potrace 1.11, written by Peter Selinger 2001-2013
</metadata>
<g transform="translate(0.000000,202.000000) scale(0.100000,-0.100000)"
fill="#000000" stroke="none">
<path d="M784 1840 c-498 -130 -779 -667 -599 -1145 91 -242 314 -429 591
-496 69 -17 121 -22 229 -22 173 0 275 23 420 93 208 101 341 251 417 470 31
91 32 102 32 245 0 126 -3 163 -22 230 -46 160 -146 325 -261 428 -108 97
-275 182 -405 206 -97 18 -319 13 -402 -9z m416 -160 c197 -56 353 -187 445
-375 59 -122 79 -220 72 -349 -9 -165 -57 -281 -165 -397 -182 -198 -500 -276
-783 -193 -233 69 -417 259 -464 481 -20 96 -19 213 5 311 95 396 497 632 890
522z"/>
<path d="M700 1320 l0 -50 125 0 125 0 0 -345 0 -345 55 0 55 0 0 345 0 344
128 3 127 3 3 48 3 47 -310 0 -311 0 0 -50z"/>
</g>
</svg>
